[Header]
FileType HTR
DataType HTRS
FileVersion 1
NumSegments 64
NumFrames 3
DataFrameRate 24
EulerRotationOrder ZYX
CalibrationUnits mm
RotationUnits Degrees
GlobalAxisofGravity Y
BoneLengthAxis Y
ScaleFactor 1.0
[SegmentNames&Hierarchy]
Hips	GLOBAL
Spine	Hips
Spine1	Spine
Spine2	Spine1
Neck	Spine2
Head	Neck
LeftEye	Head
RightEye	Head
LeftShoulder	Spine2
LeftArm	LeftShoulder
LeftForeArm	LeftArm
LeftHand	LeftForeArm
LeftHandThumb1	LeftHand
LeftHandThumb2	LeftHandThumb1
LeftHandThumb3	LeftHandThumb2
LeftHandThumb4	LeftHandThumb3
LeftHandIndex1	LeftHand
LeftHandIndex2	LeftHandIndex1
LeftHandIndex3	LeftHandIndex2
LeftHandIndex4	LeftHandIndex3
LeftHandMiddle1	LeftHand
LeftHandMiddle2	LeftHandMiddle1
LeftHandMiddle3	LeftHandMiddle2
LeftHandMiddle4	LeftHandMiddle3
LeftHandRing1	LeftHand
LeftHandRing2	LeftHandRing1
LeftHandRing3	LeftHandRing2
LeftHandRing4	LeftHandRing3
LeftHandPinky1	LeftHand
LeftHandPinky2	LeftHandPinky1
LeftHandPinky3	LeftHandPinky2
LeftHandPinky4	LeftHandPinky3
RightShoulder	Spine2
RightArm	RightShoulder
RightForeArm	RightArm
RightHand	RightForeArm
RightHandPinky1	RightHand
RightHandPinky2	RightHandPinky1
RightHandPinky3	RightHandPinky2
RightHandPinky4	RightHandPinky3
RightHandRing1	RightHand
RightHandRing2	RightHandRing1
RightHandRing3	RightHandRing2
RightHandRing4	RightHandRing3
RightHandMiddle1	RightHand
RightHandMiddle2	RightHandMiddle1
RightHandMiddle3	RightHandMiddle2
RightHandMiddle4	RightHandMiddle3
RightHandIndex1	RightHand
RightHandIndex2	RightHandIndex1
RightHandIndex3	RightHandIndex2
RightHandIndex4	RightHandIndex3
RightHandThumb1	RightHand
RightHandThumb2	RightHandThumb1
RightHandThumb3	RightHandThumb2
RightHandThumb4	RightHandThumb3
LeftUpLeg	Hips
LeftLeg	LeftUpLeg
LeftFoot	LeftLeg
LeftToeBase	LeftFoot
RightUpLeg	Hips
RightLeg	RightUpLeg
RightFoot	RightLeg
RightToeBase	RightFoot
[BasePosition]
Hips	0	0	0	0	0	0	1
Spine	0	0	0	0	0	0	1
Spine1	0	0	0	0	0	0	1
Spine2	0	0	0	0	0	0	1
Neck	0	0	0	0	0	0	1
Head	0	0	0	0	0	0	1
LeftEye	0	0	0	0	0	0	1
RightEye	0	0	0	0	0	0	1
LeftShoulder	0	0	0	0	0	0	1
LeftArm	0	0	0	0	0	0	1
LeftForeArm	0	0	0	0	0	0	1
LeftHand	0	0	0	0	0	0	1
LeftHandThumb1	0	0	0	0	0	0	1
LeftHandThumb2	0	0	0	0	0	0	1
LeftHandThumb3	0	0	0	0	0	0	1
LeftHandThumb4	0	0	0	0	0	0	1
LeftHandIndex1	0	0	0	0	0	0	1
LeftHandIndex2	0	0	0	0	0	0	1
LeftHandIndex3	0	0	0	0	0	0	1
LeftHandIndex4	0	0	0	0	0	0	1
LeftHandMiddle1	0	0	0	0	0	0	1
LeftHandMiddle2	0	0	0	0	0	0	1
LeftHandMiddle3	0	0	0	0	0	0	1
LeftHandMiddle4	0	0	0	0	0	0	1
LeftHandRing1	0	0	0	0	0	0	1
LeftHandRing2	0	0	0	0	0	0	1
LeftHandRing3	0	0	0	0	0	0	1
LeftHandRing4	0	0	0	0	0	0	1
LeftHandPinky1	0	0	0	0	0	0	1
LeftHandPinky2	0	0	0	0	0	0	1
LeftHandPinky3	0	0	0	0	0	0	1
LeftHandPinky4	0	0	0	0	0	0	1
RightShoulder	0	0	0	0	0	0	1
RightArm	0	0	0	0	0	0	1
RightForeArm	0	0	0	0	0	0	1
RightHand	0	0	0	0	0	0	1
RightHandPinky1	0	0	0	0	0	0	1
RightHandPinky2	0	0	0	0	0	0	1
RightHandPinky3	0	0	0	0	0	0	1
RightHandPinky4	0	0	0	0	0	0	1
RightHandRing1	0	0	0	0	0	0	1
RightHandRing2	0	0	0	0	0	0	1
RightHandRing3	0	0	0	0	0	0	1
RightHandRing4	0	0	0	0	0	0	1
RightHandMiddle1	0	0	0	0	0	0	1
RightHandMiddle2	0	0	0	0	0	0	1
RightHandMiddle3	0	0	0	0	0	0	1
RightHandMiddle4	0	0	0	0	0	0	1
RightHandIndex1	0	0	0	0	0	0	1
RightHandIndex2	0	0	0	0	0	0	1
RightHandIndex3	0	0	0	0	0	0	1
RightHandIndex4	0	0	0	0	0	0	1
RightHandThumb1	0	0	0	0	0	0	1
RightHandThumb2	0	0	0	0	0	0	1
RightHandThumb3	0	0	0	0	0	0	1
RightHandThumb4	0	0	0	0	0	0	1
LeftUpLeg	0	0	0	0	0	0	1
LeftLeg	0	0	0	0	0	0	1
LeftFoot	0	0	0	0	0	0	1
LeftToeBase	0	0	0	0	0	0	1
RightUpLeg	0	0	0	0	0	0	1
RightLeg	0	0	0	0	0	0	1
RightFoot	0	0	0	0	0	0	1
RightToeBase	0	0	0	0	0	0	1
[Hips]
4	13.02400684	1034.058716	10.07336807	-0.2639521956	-8.976849556	-3.128321648	1.0
5	19.54921341	1032.172363	5.862442017	1.788221717	-11.0182972	-3.018345118	1.0
6	28.20403671	1023.989136	-2.421367168	4.988910198	-13.86782074	-2.940002918	1.0
[Spine]
4	0	101.8159943	1.315000057	3.947160482	1.584055424	3.111098766	1.0
5	0	101.8159943	1.315000057	4.211596489	1.34867382	3.056570768	1.0
6	0	101.8159943	1.315000057	4.523064137	1.07401216	2.583387375	1.0
[Spine1]
4	0	100.8349991	-10.00800037	1.39234674	0.2945878208	1.662717938	1.0
5	0	100.8349991	-10.00800037	1.515909791	0.157652393	1.675801396	1.0
6	0	100.8349991	-10.00800037	1.682337284	-0.003583095968	1.57864809	1.0
[Spine2]
4	0	91	-13.73399925	1.366866469	0.316868037	1.668488264	1.0
5	0	91	-13.73399925	1.490259528	0.1790592223	1.683932662	1.0
6	0	91	-13.73399925	1.656587243	0.01705771685	1.589968681	1.0
[Neck]
4	0	166.7169952	-25.16200066	4.864847183	0.1694767177	0.5322572589	1.0
5	0	166.7169952	-25.16200066	4.522121906	0.4380724132	0.8470995426	1.0
6	0	166.7169952	-25.16200066	3.447801113	0.871118784	1.313339829	1.0
[Head]
4	0	96.17900085	16.84999847	-9.872753143	3.025911808	-1.857994914	1.0
5	0	96.17900085	16.84999847	-10.98694038	4.516023159	-2.539220333	1.0
6	0	96.17900085	16.84999847	-12.47491932	6.678699017	-3.048539877	1.0
[LeftEye]
4	30.6760006	64.09500122	92.83599854	0	0	0	1.0
5	30.6760006	64.09500122	92.83599854	0	0	0	1.0
6	30.6760006	64.09500122	92.83599854	0	0	0	1.0
[RightEye]
4	-30.6760006	64.09500122	92.83499908	0	0	0	1.0
5	-30.6760006	64.09500122	92.83499908	0	0	0	1.0
6	-30.6760006	64.09500122	92.83499908	0	0	0	1.0
[LeftShoulder]
4	45.70400238	109.4599991	-26.28000069	4.953568935	-16.67471123	-11.59193516	1.0
5	45.70400238	109.4599991	-26.28000069	4.889552116	-16.36545372	-10.59393024	1.0
6	45.70400238	109.4599991	-26.28000069	4.827000618	-16.1121521	-9.534164429	1.0
[LeftArm]
4	105.923996	-5.24600029	-22.32099915	23.29306221	-6.985116005	-68.83925629	1.0
5	105.923996	-5.24600029	-22.32099915	23.73020554	-8.006669998	-67.81755066	1.0
6	105.923996	-5.24600029	-22.32099915	23.00786209	-8.969091415	-65.92707062	1.0
[LeftForeArm]
4	278.414978	-0.0009999999311	0	-2.082884521e-06	-2.142442942	-0.0001988541335	1.0
5	278.414978	-0.0009999999311	0	-1.640326332e-06	-3.303450584	-0.0001978036889	1.0
6	278.414978	-0.0009999999311	0	-1.173356668e-05	-6.032123566	-0.0001954771142	1.0
[LeftHand]
4	283.2879944	0	0	-33.843647	-2.210407734	-2.346026182	1.0
5	283.2879944	0	0	-34.19656372	-0.6119043827	-0.3696157932	1.0
6	283.2879944	0	0	-38.17079163	2.214030743	0.2760629058	1.0
[LeftHandThumb1]
4	24.6609993	-15.75	26.8239994	-0.4889877737	2.201391697	4.818538189	1.0
5	24.6609993	-15.75	26.8239994	-0.4889889657	2.201391935	4.818544865	1.0
6	24.6609993	-15.75	26.8239994	-0.4889902472	2.201387882	4.818540096	1.0
[LeftHandThumb2]
4	32.29800034	-18.64699936	18.64699936	21.55477905	21.03213692	23.74453163	1.0
5	32.29800034	-18.64699936	18.64699936	22.75620842	23.2379303	24.99803352	1.0
6	32.29800034	-18.64699936	18.64699936	25.53129005	28.98102188	27.71107864	1.0
[LeftHandThumb3]
4	26.52600098	-15.31499958	15.31499958	-13.06620789	5.04674387	8.161762238	1.0
5	26.52600098	-15.31499958	15.31499958	-12.09365654	4.436311245	7.958378792	1.0
6	26.52600098	-15.31499958	15.31499958	-13.53692055	-4.351649284	15.35734558	1.0
[LeftHandThumb4]
4	19.54599953	-11.28499985	11.28499985	0	0	0	1.0
5	19.54599953	-11.28499985	11.28499985	0	0	0	1.0
6	19.54599953	-11.28499985	11.28499985	0	0	0	1.0
[LeftHandIndex1]
4	91.09299469	-5.170999527	22.60099792	0.3188205659	0.04271085188	-10.38958359	1.0
5	91.09299469	-5.170999527	22.60099792	0.2253742963	0.009019429795	-11.1476202	1.0
6	91.09299469	-5.170999527	22.60099792	0.4965856373	1.833651304	-16.29187012	1.0
[LeftHandIndex2]
4	36.76399994	0	0	-0.2660214305	1.742987633	-17.35402489	1.0
5	36.76399994	0	0	-0.2655314505	1.741441488	-17.33806229	1.0
6	36.76399994	0	0	-0.2657443881	1.742124557	-17.34506416	1.0
[LeftHandIndex3]
4	28.83100128	0	0	-0.05711247399	0.8150756359	-8.015960693	1.0
5	28.83100128	0	0	-0.05688106269	0.8134599924	-8.000000954	1.0
6	28.83100128	0	0	-0.05697999522	0.8141629696	-8.00696373	1.0
[LeftHandIndex4]
4	23.92700005	0	0	0	0	0	1.0
5	23.92700005	0	0	0	0	0	1.0
6	23.92700005	0	0	0	0	0	1.0
[LeftHandMiddle1]
4	95.33399963	0	0	-0.9162751436	2.927330017	-17.48298836	1.0
5	95.33399963	0	0	-0.9354045391	3.024088621	-17.75318909	1.0
6	95.33399963	0	0	-1.220615387	4.218723297	-21.51145172	1.0
[LeftHandMiddle2]
4	36.98199844	0	0	-0.2645854652	1.738409281	-17.30695724	1.0
5	36.98199844	0	0	-0.2643826604	1.737745881	-17.3001194	1.0
6	36.98199844	0	0	-0.2626764476	1.732259989	-17.24378586	1.0
[LeftHandMiddle3]
4	29.50900078	0	0	-0.2959834039	1.836086154	-18.31357002	1.0
5	29.50900078	0	0	-0.2957294583	1.83531189	-18.30558205	1.0
6	29.50900078	0	0	-0.2940533459	1.830243826	-18.25321198	1.0
[LeftHandMiddle4]
4	28.3390007	0	0	0	0	0	1.0
5	28.3390007	0	0	0	0	0	1.0
6	28.3390007	0	0	0	0	0	1.0
[LeftHandRing1]
4	91.04499817	-0.4390000105	-18.65100098	-1.31818831	3.68582654	-22.90172005	1.0
5	91.04499817	-0.4390000105	-18.65100098	-1.387331247	4.178091526	-23.77769089	1.0
6	91.04499817	-0.4390000105	-18.65100098	-1.559320807	5.793832302	-25.90988541	1.0
[LeftHandRing2]
4	31.54000092	0	0	-0.3921090961	2.104223251	-21.10897255	1.0
5	31.54000092	0	0	-0.3988952637	2.121708393	-21.29319954	1.0
6	31.54000092	0	0	-0.4072884917	2.143119812	-21.5188694	1.0
[LeftHandRing3]
4	29.37700081	0	0	-0.2879475653	1.811636567	-18.06110191	1.0
5	29.37700081	0	0	-0.2937046289	1.829184651	-18.24215317	1.0
6	29.37700081	0	0	-0.3010955453	1.851463079	-18.47245407	1.0
[LeftHandRing4]
4	26.47500038	0	0	0	0	0	1.0
5	26.47500038	0	0	0	0	0	1.0
6	26.47500038	0	0	0	0	0	1.0
[LeftHandPinky1]
4	80.77799988	-4.887000084	-38.06099701	-1.8101964	4.736517906	-28.03426361	1.0
5	80.77799988	-4.887000084	-38.06099701	-1.764126897	4.510118961	-27.5191555	1.0
6	80.77799988	-4.887000084	-38.06099701	-1.87294066	5.857288361	-29.05098724	1.0
[LeftHandPinky2]
4	36	0	0	-0.2738939822	1.767989755	-17.6111908	1.0
5	36	0	0	-0.2743266821	1.769334197	-17.62506294	1.0
6	36	0	0	-0.2754364014	1.773277521	-17.66520691	1.0
[LeftHandPinky3]
4	21.14200211	0	0	-0.2468265742	1.68036449	-16.71142006	1.0
5	21.14200211	0	0	-0.2472199053	1.681674838	-16.72489548	1.0
6	21.14200211	0	0	-0.2482790947	1.685673475	-16.76549149	1.0
[LeftHandPinky4]
4	19.75699997	0	0	0	0	0	1.0
5	19.75699997	0	0	0	0	0	1.0
6	19.75699997	0	0	0	0	0	1.0
[RightShoulder]
4	-45.70000076	109.4620056	-26.28000069	5.015442848	14.58576202	15.17397881	1.0
5	-45.70000076	109.4620056	-26.28000069	4.978008747	14.71693802	15.09968948	1.0
6	-45.70000076	109.4620056	-26.28000069	4.906443596	14.58804321	14.91988945	1.0
[RightArm]
4	-105.9280014	-5.248000145	-22.32099915	26.28142357	1.399020672	57.04192734	1.0
5	-105.9280014	-5.248000145	-22.32099915	24.75198555	1.276441336	54.78750992	1.0
6	-105.9280014	-5.248000145	-22.32099915	23.74643707	1.636526585	52.85650635	1.0
[RightForeArm]
4	-278.414978	0	0	-4.970454484e-06	17.4078083	-1.540878657e-05	1.0
5	-278.414978	0	0	1.399884809e-06	21.04683304	2.031966233e-06	1.0
6	-278.414978	0	0	2.48491574e-08	24.8812294	9.896267329e-06	1.0
[RightHand]
4	-283.2879944	0	0.0009999999311	-19.7462368	0.5025342703	-5.167084217	1.0
5	-283.2879944	0	0.0009999999311	-20.22006989	-0.02591672167	-9.764110565	1.0
6	-283.2879944	0	0.0009999999311	-19.98173523	-1.571822882	-14.83414555	1.0
[RightHandPinky1]
4	-80.76699829	-4.885000229	-38.06000137	-2.036510468	-3.281162739	29.17978287	1.0
5	-80.76699829	-4.885000229	-38.06000137	-2.122371674	-3.022076607	29.54012489	1.0
6	-80.76699829	-4.885000229	-38.06000137	-2.352376699	-2.457885981	30.81193161	1.0
[RightHandPinky2]
4	-36	0	0.0009999999311	-0.2136978358	-1.391853809	17.47649384	1.0
5	-36	0	0.0009999999311	-0.2220770419	-1.418210149	17.81807518	1.0
6	-36	0	0.0009999999311	-0.2204695195	-1.413185596	17.75292015	1.0
[RightHandPinky3]
4	-21.14200211	0	0	-0.1924983263	-1.322575569	16.56177521	1.0
5	-21.14200211	0	0	-0.2003975809	-1.348849893	16.90070534	1.0
6	-21.14200211	0	0	-0.1986567676	-1.34308815	16.82637405	1.0
[RightHandPinky4]
4	-19.75699997	0	0	0	0	0	1.0
5	-19.75699997	0	0	0	0	0	1.0
6	-19.75699997	0	0	0	0	0	1.0
[RightHandRing1]
4	-91.03599548	-0.4390000105	-18.65100098	-1.19992578	-2.177520752	22.80000305	1.0
5	-91.03599548	-0.4390000105	-18.65100098	-1.256677747	-1.997726202	23.63204956	1.0
6	-91.03599548	-0.4390000105	-18.65100098	-1.384907722	-1.074901819	25.48181152	1.0
[RightHandRing2]
4	-31.54000092	0	0	-0.3250969648	-1.706035256	21.57627106	1.0
5	-31.54000092	0	0	-0.3384614885	-1.73943007	22.02066612	1.0
6	-31.54000092	0	0	-0.3501438498	-1.767960787	22.40167236	1.0
[RightHandRing3]
4	-29.37700081	0	0	-0.2404418886	-1.474172473	18.52607155	1.0
5	-29.37700081	0	0	-0.2520063818	-1.50822103	18.97043228	1.0
6	-29.37700081	0	0	-0.2623882294	-1.537996054	19.35998154	1.0
[RightHandRing4]
4	-26.47500038	0	0	0	0	0	1.0
5	-26.47500038	0	0	0	0	0	1.0
6	-26.47500038	0	0	0	0	0	1.0
[RightHandMiddle1]
4	-95.32500458	0	0	-0.8387392759	-2.034463882	17.26925087	1.0
5	-95.32500458	0	0	-0.8506820798	-2.376459122	17.452034	1.0
6	-95.32500458	0	0	-0.9659759402	-2.191230297	19.24918747	1.0
[RightHandMiddle2]
4	-36.98199844	0	0	-0.2214505523	-1.416246653	17.77300072	1.0
5	-36.98199844	0	0	-0.2323261052	-1.44973278	18.20796013	1.0
6	-36.98199844	0	0	-0.2549148202	-1.516085982	19.07390404	1.0
[RightHandMiddle3]
4	-29.50900078	0	0	-0.2471126914	-1.495956779	18.78379059	1.0
5	-29.50900078	0	0	-0.2585239112	-1.529069901	19.21654892	1.0
6	-29.50900078	0	0	-0.2823591828	-1.595229149	20.08529663	1.0
[RightHandMiddle4]
4	-28.3390007	0	0.0009999999311	0	0	0	1.0
5	-28.3390007	0	0.0009999999311	0	0	0	1.0
6	-28.3390007	0	0.0009999999311	0	0	0	1.0
[RightHandIndex1]
4	-91.08300018	-5.167999744	22.60099792	-0.1339284331	1.319750667	10.01046658	1.0
5	-91.08300018	-5.167999744	22.60099792	-0.3401787579	1.377656102	11.46200275	1.0
6	-91.08300018	-5.167999744	22.60099792	-0.6038219929	2.030750275	14.49108601	1.0
[RightHandIndex2]
4	-36.76399994	0	0	-0.2162709385	-1.400016665	17.56259346	1.0
5	-36.76399994	0	0	-0.2171664983	-1.402846336	17.59914398	1.0
6	-36.76399994	0	0	-0.2157667428	-1.398444653	17.54213524	1.0
[RightHandIndex3]
4	-28.83100128	0	0	-0.04754371196	-0.6625620127	8.208789825	1.0
5	-28.83100128	0	0	-0.04788913578	-0.6649534106	8.238550186	1.0
6	-28.83100128	0	0	-0.04767653346	-0.6635797024	8.221382141	1.0
[RightHandIndex4]
4	-23.92700005	0	0	0	0	0	1.0
5	-23.92700005	0	0	0	0	0	1.0
6	-23.92700005	0	0	0	0	0	1.0
[RightHandThumb1]
4	-24.64799881	-15.72700024	26.82600021	-1.658455253	-0.289144665	-4.221328735	1.0
5	-24.64799881	-15.72700024	26.82600021	-1.658457637	-0.2891513109	-4.22135067	1.0
6	-24.64799881	-15.72700024	26.82600021	-1.658452272	-0.2891588807	-4.221348286	1.0
[RightHandThumb2]
4	-32.29800034	-18.64699936	18.64699936	21.18692207	-21.53077507	-23.33860588	1.0
5	-32.29800034	-18.64699936	18.64699936	20.92945862	-21.19848442	-22.54525185	1.0
6	-32.29800034	-18.64699936	18.64699936	20.07118225	-19.31654358	-21.58677673	1.0
[RightHandThumb3]
4	-26.52600098	-15.31399918	15.31399918	-14.54153061	-6.640403748	-11.64980888	1.0
5	-26.52600098	-15.31399918	15.31399918	-14.58500767	-6.518811226	-11.588624	1.0
6	-26.52600098	-15.31399918	15.31399918	-14.61357689	-6.454576492	-11.63088703	1.0
[RightHandThumb4]
4	-19.54599953	-11.28499985	11.28499985	0	0	0	1.0
5	-19.54599953	-11.28499985	11.28499985	0	0	0	1.0
6	-19.54599953	-11.28499985	11.28499985	0	0	0	1.0
[LeftUpLeg]
4	82.07800293	-67.51699829	-15.99599934	-11.19076061	17.8823452	6.964123726	1.0
5	82.07800293	-67.51699829	-15.99599934	-13.86170101	18.36305618	6.330445766	1.0
6	82.07800293	-67.51699829	-15.99599934	-19.6819725	19.04942513	5.401390076	1.0
[LeftLeg]
4	0	-443.7049866	2.845999956	12.55395031	3.725832701	3.226157665	1.0
5	0	-443.7049866	2.845999956	13.88548374	5.605901241	2.996989012	1.0
6	0	-443.7049866	2.845999956	18.73329163	7.507725239	3.093534946	1.0
[LeftFoot]
4	0	-444.2789917	-29.8219986	1.106364012	0.61620152	-5.601829052	1.0
5	0	-444.2789917	-29.8219986	0.6136881113	0.5484473705	-4.990968704	1.0
6	0	-444.2789917	-29.8219986	-1.373398542	0.9696440697	-4.43475008	1.0
[LeftToeBase]
4	0	-87.28699493	107.1060028	-4.92852211	-2.138183675e-08	4.097622082e-07	1.0
5	0	-87.28699493	107.1060028	-4.928528786	5.786951988e-06	3.744515595e-07	1.0
6	0	-87.28699493	107.1060028	-4.928526402	4.473832632e-06	4.923488177e-07	1.0
[RightUpLeg]
4	-82.07800293	-67.51699829	-15.99599934	-3.99114418	-9.300699234	2.922684431	1.0
5	-82.07800293	-67.51699829	-15.99599934	-7.548054218	-7.840968132	2.883130312	1.0
6	-82.07800293	-67.51699829	-15.99599934	-14.64417076	-5.850018978	2.548241138	1.0
[RightLeg]
4	0	-443.7049866	2.861999989	7.932116508	-8.040815353	-4.167190552	1.0
5	0	-443.7049866	2.861999989	9.603964806	-7.245311737	-4.477222919	1.0
6	0	-443.7049866	2.861999989	15.16421318	-5.967679024	-4.644451141	1.0
[RightFoot]
4	0	-444.2770081	-29.83799934	-2.61573267	-0.02681603096	3.493698597	1.0
5	0	-444.2770081	-29.83799934	-2.676862955	0.008301493712	3.857419729	1.0
6	0	-444.2770081	-29.83799934	-4.224783897	0.1281175315	4.193603516	1.0
[RightToeBase]
4	0	-87.28699493	107.1060028	-7.326106548	-7.735101462e-06	-4.364659105e-07	1.0
5	0	-87.28699493	107.1060028	-7.350698471	6.129380381e-06	-5.723283039e-07	1.0
6	0	-87.28699493	107.1060028	-7.373962402	7.159727829e-06	-6.557410188e-07	1.0
[EndOfFile]
